<svg width="215" height="62" viewBox="0 0 215 62" fill="none" xmlns="http://www.w3.org/2000/svg">
<path d="M73.7592 52.1121C73.7592 56.9565 71.3344 59.363 66.4538 59.363H59.335V54.5186H66.5471C68.1636 54.5186 68.9408 53.706 68.9408 52.1121V49.7055H61.7287C56.9103 49.7055 54.5166 47.2989 54.5166 42.4545V37.6101C54.5166 32.7657 56.9103 30.3591 61.7287 30.3591H73.7592V52.1121ZM68.9718 35.2035H61.7598C60.1433 35.2035 59.3661 36.0161 59.3661 37.6101V42.4545C59.3661 44.0797 60.1744 44.8611 61.7598 44.8611H68.9718V35.2035Z" fill="#1D1D1B"/>
<path d="M79.7588 42.0171V42.4546C79.7588 44.0799 80.5671 44.8612 82.1525 44.8612H93.7478V49.7056H82.1525C77.3341 49.7056 74.9404 47.299 74.9404 42.4546V42.0171V37.1727C74.9404 32.3283 77.3963 29.9217 82.2769 29.9217H87.2507C92.1313 29.9217 94.5871 32.3283 94.5871 37.1727V42.0171H79.7588ZM89.7998 37.1727C89.7998 35.5474 88.9916 34.7661 87.4061 34.7661H82.1525C80.536 34.7661 79.7588 35.5787 79.7588 37.1727H89.7998Z" fill="#1D1D1B"/>
<path d="M102.048 42.0171V42.4546C102.048 44.0799 102.856 44.8612 104.442 44.8612H116.037V49.7056H104.442C99.6232 49.7056 97.2295 47.299 97.2295 42.4546V42.0171V37.1727C97.2295 32.3283 99.6853 29.9217 104.566 29.9217H109.54C114.42 29.9217 116.876 32.3283 116.876 37.1727V42.0171H102.048ZM112.089 37.1727C112.089 35.5474 111.281 34.7661 109.695 34.7661H104.442C102.825 34.7661 102.048 35.5787 102.048 37.1727H112.089Z" fill="#1D1D1B"/>
<path d="M141.155 49.7055H134.316L126.762 42.4545H124.368V49.7055H119.55V23.3269H124.368V37.6101H126.762L134.378 30.3591H141.155L131.332 40.0167L141.155 49.7055Z" fill="#1D1D1B"/>
<path d="M142.46 37.6101C142.46 32.7657 144.854 30.3591 149.672 30.3591H156.884V23.3269H161.703V49.7055H149.672C144.854 49.7055 142.46 47.2989 142.46 42.4545V37.6101ZM156.884 35.2035H149.672C148.056 35.2035 147.278 36.0161 147.278 37.6101V42.4545C147.278 44.0797 148.087 44.8611 149.672 44.8611H156.884V35.2035Z" fill="#E84E1B"/>
<path d="M183.557 42.8922C183.557 47.7366 181.163 50.1432 176.345 50.1432H171.527C166.708 50.1432 164.314 47.7366 164.314 42.8922V37.1727C164.314 32.3283 166.708 29.9217 171.527 29.9217H176.345C181.163 29.9217 183.557 32.3283 183.557 37.1727V42.8922ZM178.739 42.8922V37.1727C178.739 35.5475 177.93 34.7661 176.345 34.7661H171.527C169.91 34.7661 169.133 35.5787 169.133 37.1727V42.8922C169.133 44.5174 169.941 45.2988 171.527 45.2988H176.345C177.961 45.2988 178.739 44.4862 178.739 42.8922Z" fill="#E84E1B"/>
<path d="M192.073 52.112C192.073 56.9564 189.68 59.363 184.861 59.363V54.5186C186.478 54.5186 187.255 53.706 187.255 52.112V30.3591H192.136L192.073 52.112ZM192.073 28.1713H187.255V23.3269H192.073V28.1713Z" fill="#E84E1B"/>
<path d="M214.021 42.8922C214.021 47.7366 211.627 50.1432 206.809 50.1432H201.99C197.172 50.1432 194.778 47.7366 194.778 42.8922V37.1727C194.778 32.3283 197.172 29.9217 201.99 29.9217H206.809C211.627 29.9217 214.021 32.3283 214.021 37.1727V42.8922ZM209.202 42.8922V37.1727C209.202 35.5475 208.394 34.7661 206.809 34.7661H201.99C200.374 34.7661 199.597 35.5787 199.597 37.1727V42.8922C199.597 44.5174 200.405 45.2988 201.99 45.2988H206.809C208.425 45.2988 209.202 44.4862 209.202 42.8922Z" fill="#E84E1B"/>
<path d="M82.7732 59.1132C82.4001 59.2382 81.6541 59.4258 80.9391 59.4258C79.9443 59.4258 79.1982 59.1757 78.7008 58.6757C78.1413 58.1443 77.8304 57.3005 77.8615 56.3629C77.8615 54.2376 79.2915 53.1437 81.0945 53.1437C81.7784 53.1437 82.338 53.2687 82.5867 53.3937L82.3069 54.4876C82.0271 54.3626 81.6541 54.2688 81.0945 54.2688C80.0376 54.2688 79.2293 54.8939 79.2293 56.3316C79.2293 57.6755 79.9754 58.3631 80.9391 58.3631C81.1878 58.3631 81.4054 58.3319 81.4986 58.3006V56.9567H80.6593V55.894H82.7732V59.1132Z" fill="#1D1D1B"/>
<path d="M84.8255 57.5504C84.8566 58.1755 85.3851 58.4255 86.0068 58.4255C86.442 58.4255 86.784 58.363 87.1259 58.238L87.3124 59.1444C86.9083 59.3007 86.3798 59.3944 85.8203 59.3944C84.3903 59.3944 83.582 58.5193 83.582 57.1441C83.582 55.894 84.3281 54.7375 85.6959 54.7375C87.0016 54.7375 87.5611 55.7689 87.5611 56.9566C87.5611 57.2379 87.53 57.4254 87.53 57.5192H84.8255V57.5504ZM86.2866 56.6441C86.2866 56.2377 86.1311 55.7064 85.6027 55.7064C85.0742 55.7064 84.8566 56.269 84.8255 56.6441H86.2866Z" fill="#1D1D1B"/>
<path d="M89.3636 57.5504C89.3947 58.1755 89.9231 58.4255 90.5449 58.4255C90.9801 58.4255 91.322 58.363 91.664 58.238L91.8505 59.1444C91.4464 59.3007 90.9179 59.3944 90.3584 59.3944C88.9284 59.3944 88.1201 58.5193 88.1201 57.1441C88.1201 55.894 88.8662 54.7375 90.234 54.7375C91.5396 54.7375 92.0992 55.7689 92.0992 56.9566C92.0992 57.2379 92.0681 57.4254 92.0681 57.5192H89.3636V57.5504ZM90.8246 56.6441C90.8246 56.2377 90.6692 55.7064 90.1407 55.7064C89.6123 55.7064 89.3947 56.269 89.3636 56.6441H90.8246Z" fill="#1D1D1B"/>
<path d="M94.1512 56.8004C94.2755 56.5816 94.3688 56.3941 94.462 56.2378L95.2703 54.8938H96.8246L95.3636 56.7378L96.98 59.3945H95.3946L94.462 57.5505L94.1512 57.988V59.3945H92.8145V52.9248H94.1512V56.8004Z" fill="#1D1D1B"/>
<path d="M97.4158 58.1755C97.6334 58.3318 98.1308 58.488 98.5039 58.488C98.8769 58.488 99.0634 58.3318 99.0634 58.113C99.0634 57.8942 98.9391 57.7692 98.4417 57.5816C97.5713 57.2379 97.2604 56.7378 97.2915 56.2377C97.2915 55.3939 97.9754 54.7688 99.0013 54.7688C99.4676 54.7688 99.9028 54.8938 100.151 55.0188L99.9339 55.9564C99.7473 55.8627 99.4054 55.7377 99.0634 55.7377C98.7215 55.7377 98.566 55.8939 98.566 56.1127C98.566 56.3315 98.7215 56.4252 99.2189 56.644C99.996 56.9566 100.338 57.3941 100.338 58.0192C100.338 58.8943 99.6852 59.4569 98.5039 59.4569C97.9754 59.4569 97.478 59.3319 97.1982 59.1444L97.4158 58.1755Z" fill="#1D1D1B"/>
<path d="M102.824 52.8934H104.161V59.363H102.824V52.8934Z" fill="#1D1D1B"/>
<path d="M106.244 57.5504C106.276 58.1755 106.804 58.4255 107.426 58.4255C107.861 58.4255 108.203 58.363 108.545 58.238L108.731 59.1444C108.327 59.3007 107.799 59.3944 107.239 59.3944C105.809 59.3944 105.001 58.5193 105.001 57.1441C105.001 55.894 105.747 54.7375 107.115 54.7375C108.42 54.7375 108.98 55.7689 108.98 56.9566C108.98 57.2379 108.949 57.4254 108.949 57.5192H106.244V57.5504ZM107.706 56.6441C107.706 56.2377 107.55 55.7064 107.022 55.7064C106.493 55.7064 106.276 56.269 106.244 56.6441H107.706Z" fill="#1D1D1B"/>
<path d="M112.119 59.3631L112.057 58.9256H112.026C111.746 59.2694 111.311 59.4569 110.844 59.4569C110.005 59.4569 109.477 58.8318 109.477 58.0817C109.477 56.8941 110.502 56.3627 111.932 56.3627V56.3002C111.932 56.0189 111.777 55.7064 111.186 55.7064C110.751 55.7064 110.347 55.8314 110.036 56.0189L109.787 55.1438C110.067 54.9876 110.658 54.7688 111.435 54.7688C112.896 54.7688 113.269 55.6751 113.269 56.6753V58.2692C113.269 58.6755 113.3 59.0819 113.331 59.3319H112.119V59.3631ZM111.932 57.2066C111.311 57.2066 110.751 57.3629 110.751 57.9254C110.751 58.3005 111 58.488 111.28 58.488C111.59 58.488 111.839 58.3005 111.932 58.0192C111.964 57.9567 111.964 57.8629 111.964 57.8004V57.2066H111.932Z" fill="#1D1D1B"/>
<path d="M114.264 56.3002C114.264 55.7064 114.264 55.2688 114.233 54.8625H115.384L115.446 55.6439H115.477C115.694 55.0501 116.192 54.7688 116.596 54.7688C116.72 54.7688 116.782 54.7688 116.876 54.8V56.0814C116.782 56.0502 116.689 56.0502 116.534 56.0502C116.099 56.0502 115.757 56.3002 115.663 56.7378C115.632 56.8315 115.632 56.9566 115.632 57.0816V59.3631H114.296V56.3002H114.264Z" fill="#1D1D1B"/>
<path d="M117.498 56.269C117.498 55.7377 117.467 55.2688 117.467 54.8625H118.617L118.679 55.4564H118.71C118.897 55.1438 119.332 54.7688 120.016 54.7688C120.917 54.7688 121.508 55.3939 121.508 56.644V59.3631H120.171V56.769C120.171 56.2377 120.016 55.8627 119.55 55.8627C119.208 55.8627 119.021 56.0814 118.928 56.3627C118.897 56.4565 118.866 56.5815 118.866 56.7378V59.3631H117.529V56.269H117.498Z" fill="#1D1D1B"/>
<path d="M123.839 53.6436C123.839 54.0187 123.56 54.3312 123.124 54.3312C122.72 54.3312 122.44 54.05 122.44 53.6436C122.44 53.2373 122.72 52.9561 123.124 52.9561C123.56 52.9561 123.839 53.2373 123.839 53.6436ZM122.472 59.3632V54.8626H123.808V59.3632H122.472Z" fill="#1D1D1B"/>
<path d="M124.865 56.269C124.865 55.7377 124.834 55.2688 124.834 54.8625H125.984L126.046 55.4564H126.077C126.264 55.1438 126.699 54.7688 127.383 54.7688C128.285 54.7688 128.875 55.3939 128.875 56.644V59.3631H127.539V56.769C127.539 56.2377 127.383 55.8627 126.917 55.8627C126.575 55.8627 126.388 56.0814 126.295 56.3627C126.264 56.4565 126.233 56.5815 126.233 56.7378V59.3631H124.896V56.269H124.865Z" fill="#1D1D1B"/>
<path d="M133.818 54.8626C133.787 55.1751 133.787 55.5814 133.787 56.2378V58.7693C133.787 59.6757 133.6 60.3321 133.134 60.7384C132.699 61.1447 132.077 61.2697 131.424 61.2697C130.896 61.2697 130.336 61.1759 129.963 60.9571L130.212 59.9257C130.46 60.082 130.896 60.207 131.362 60.207C132.015 60.207 132.419 59.832 132.419 59.0506V58.7693H132.45C132.232 59.1131 131.828 59.3007 131.362 59.3007C130.274 59.3007 129.621 58.3318 129.621 57.1129C129.621 55.6439 130.46 54.7375 131.486 54.7375C132.015 54.7375 132.388 54.9876 132.605 55.3314H132.636L132.699 54.8313H133.818V54.8626ZM132.45 56.6441C132.45 56.5503 132.45 56.4565 132.419 56.3628C132.326 56.0502 132.108 55.8314 131.766 55.8314C131.269 55.8314 130.958 56.3315 130.958 57.1129C130.958 57.8317 131.269 58.3318 131.766 58.3318C132.077 58.3318 132.326 58.1443 132.388 57.8317C132.419 57.738 132.419 57.5817 132.419 57.4567V56.6441H132.45Z" fill="#1D1D1B"/>
<path d="M140.532 54.8626C140.501 55.1751 140.501 55.5814 140.501 56.2378V58.7693C140.501 59.6757 140.315 60.3321 139.848 60.7384C139.413 61.1447 138.791 61.2697 138.139 61.2697C137.61 61.2697 137.051 61.1759 136.678 60.9571L136.926 59.9257C137.175 60.082 137.61 60.207 138.076 60.207C138.729 60.207 139.133 59.832 139.133 59.0506V58.7693H139.102C138.885 59.1131 138.481 59.3007 138.014 59.3007C136.926 59.3007 136.273 58.3318 136.273 57.1129C136.273 55.6439 137.113 54.7375 138.139 54.7375C138.667 54.7375 139.04 54.9876 139.258 55.3314H139.289L139.351 54.8313H140.532V54.8626ZM139.164 56.6441C139.164 56.5503 139.164 56.4565 139.133 56.3628C139.04 56.0502 138.823 55.8314 138.481 55.8314C137.983 55.8314 137.672 56.3315 137.672 57.1129C137.672 57.8317 137.983 58.3318 138.481 58.3318C138.791 58.3318 139.04 58.1443 139.102 57.8317C139.133 57.738 139.133 57.5817 139.133 57.4567V56.6441H139.164Z" fill="#1D1D1B"/>
<path d="M142.553 57.5504C142.584 58.1755 143.113 58.4255 143.734 58.4255C144.17 58.4255 144.511 58.363 144.853 58.238L145.04 59.1444C144.636 59.3007 144.107 59.3944 143.548 59.3944C142.118 59.3944 141.31 58.5193 141.31 57.1441C141.31 55.894 142.056 54.7375 143.423 54.7375C144.729 54.7375 145.289 55.7689 145.289 56.9566C145.289 57.2379 145.258 57.4254 145.258 57.5192H142.553V57.5504ZM144.014 56.6441C144.014 56.2377 143.859 55.7064 143.33 55.7064C142.802 55.7064 142.584 56.269 142.553 56.6441H144.014Z" fill="#1D1D1B"/>
<path d="M147.092 57.5504C147.123 58.1755 147.652 58.4255 148.273 58.4255C148.709 58.4255 149.051 58.363 149.392 58.238L149.579 59.1444C149.175 59.3007 148.646 59.3944 148.087 59.3944C146.657 59.3944 145.849 58.5193 145.849 57.1441C145.849 55.894 146.595 54.7375 147.962 54.7375C149.268 54.7375 149.828 55.7689 149.828 56.9566C149.828 57.2379 149.797 57.4254 149.797 57.5192H147.092V57.5504ZM148.553 56.6441C148.553 56.2377 148.398 55.7064 147.869 55.7064C147.341 55.7064 147.123 56.269 147.092 56.6441H148.553Z" fill="#1D1D1B"/>
<path d="M151.879 56.8004C152.003 56.5816 152.096 56.3941 152.19 56.2378L152.998 54.8938H154.552L153.091 56.7378L154.708 59.3945H153.122L152.19 57.5505L151.879 57.988V59.3945H150.542V52.9248H151.879V56.8004Z" fill="#1D1D1B"/>
<path d="M158.408 53.6126V54.8627H159.372V55.8316H158.408V57.5819C158.408 58.1132 158.564 58.332 158.937 58.332C159.092 58.332 159.216 58.3007 159.31 58.3007V59.3321C159.123 59.3946 158.812 59.4259 158.47 59.4259C158.066 59.4259 157.693 59.3008 157.476 59.0821C157.227 58.832 157.103 58.4257 157.103 57.7694V55.8316H156.543V54.8627H157.103V53.8939L158.408 53.6126Z" fill="#1D1D1B"/>
<path d="M160.086 52.8934H161.423V55.3937H161.454C161.578 55.2062 161.765 55.0812 161.951 54.9562C162.138 54.8624 162.386 54.7686 162.635 54.7686C163.505 54.7686 164.065 55.425 164.065 56.7064V59.363H162.728V56.8001C162.728 56.2688 162.573 55.8625 162.107 55.8625C161.796 55.8625 161.578 56.05 161.485 56.3313C161.454 56.4251 161.454 56.5501 161.454 56.6439V59.363H160.117V52.8934H160.086Z" fill="#1D1D1B"/>
<path d="M166.427 53.6436C166.427 54.0187 166.147 54.3312 165.712 54.3312C165.308 54.3312 165.028 54.05 165.028 53.6436C165.028 53.2373 165.308 52.9561 165.712 52.9561C166.147 52.9561 166.427 53.2373 166.427 53.6436ZM165.09 59.3632V54.8626H166.427V59.3632H165.09Z" fill="#1D1D1B"/>
<path d="M167.454 56.269C167.454 55.7377 167.423 55.2688 167.423 54.8625H168.573L168.635 55.4564H168.666C168.853 55.1438 169.288 54.7688 169.972 54.7688C170.873 54.7688 171.464 55.3939 171.464 56.644V59.3631H170.127V56.769C170.127 56.2377 169.972 55.8627 169.506 55.8627C169.164 55.8627 168.977 56.0814 168.884 56.3627C168.853 56.4565 168.822 56.5815 168.822 56.7378V59.3631H167.485V56.269H167.454Z" fill="#1D1D1B"/>
<path d="M176.438 54.8626C176.407 55.1751 176.407 55.5814 176.407 56.2378V58.7693C176.407 59.6757 176.22 60.3321 175.754 60.7384C175.319 61.1447 174.697 61.2697 174.044 61.2697C173.516 61.2697 172.956 61.1759 172.583 60.9571L172.832 59.9257C173.08 60.082 173.516 60.207 173.982 60.207C174.635 60.207 175.039 59.832 175.039 59.0506V58.7693C174.821 59.1131 174.417 59.3007 173.951 59.3007C172.894 59.3007 172.21 58.3318 172.21 57.1129C172.21 55.6439 173.049 54.7375 174.075 54.7375C174.604 54.7375 174.977 54.9876 175.163 55.3314H175.194L175.256 54.8313H176.438V54.8626ZM175.039 56.6441C175.039 56.5503 175.039 56.4565 175.008 56.3628C174.914 56.0502 174.697 55.8314 174.355 55.8314C173.858 55.8314 173.547 56.3315 173.547 57.1129C173.547 57.8317 173.858 58.3318 174.355 58.3318C174.666 58.3318 174.914 58.1443 174.977 57.8317C175.008 57.738 175.008 57.5817 175.008 57.4567V56.6441H175.039Z" fill="#1D1D1B"/>
<path d="M177.401 58.1755C177.619 58.3318 178.116 58.488 178.489 58.488C178.862 58.488 179.049 58.3318 179.049 58.113C179.049 57.8942 178.924 57.7692 178.427 57.5816C177.557 57.2379 177.246 56.7378 177.277 56.2377C177.277 55.3939 177.961 54.7688 178.987 54.7688C179.453 54.7688 179.888 54.8938 180.137 55.0188L179.919 55.9564C179.733 55.8627 179.391 55.7377 179.049 55.7377C178.707 55.7377 178.551 55.8939 178.551 56.1127C178.551 56.3315 178.707 56.4252 179.204 56.644C179.981 56.9566 180.323 57.3941 180.323 58.0192C180.323 58.8943 179.671 59.4569 178.489 59.4569C177.961 59.4569 177.463 59.3319 177.184 59.1444L177.401 58.1755Z" fill="#1D1D1B"/>
<path d="M20.5697 29.5156C18.2693 28.1717 15.6269 27.9217 13.2333 28.5468C10.8396 29.2031 8.72572 30.7346 7.389 33.0474C6.82944 34.0162 6.4564 35.0164 6.26988 36.0478H0.0214844V39.7045H6.26988C6.30097 39.9233 6.36314 40.1421 6.42531 40.3921C6.89161 42.1736 7.88638 43.7988 9.28527 45.0802L8.5392 46.3929L9.28527 46.8305L8.16616 48.7995L7.42008 48.3619L2.47732 56.9568C1.91776 57.9257 2.25972 59.1759 3.2234 59.7072C4.18708 60.2698 5.43054 59.926 5.95901 58.9571L10.9018 50.3935L10.1557 49.9559L11.2748 47.9869L12.0209 48.4244L12.767 47.1118C14.57 47.7056 16.4663 47.7368 18.2382 47.2368C20.6319 46.5804 22.7457 45.049 24.0825 42.7362C25.4192 40.4234 25.699 37.7668 25.0462 35.3914C24.4244 33.0161 22.8701 30.8596 20.5697 29.5156ZM50.6615 28.7655L45.7187 32.2348C44.6307 30.5783 43.0763 29.3594 41.3355 28.6405C39.0662 27.7029 36.4238 27.6716 33.9991 28.703C31.5743 29.7344 29.7713 31.6722 28.8387 33.9537C27.9061 36.2353 27.875 38.8919 28.9009 41.3297C29.9267 43.7676 31.8541 45.5803 34.1234 46.5179C36.3927 47.4556 39.0351 47.4868 41.4598 46.4554C43.8846 45.424 45.6876 43.4863 46.6202 41.2047C47.3041 39.4545 47.5217 37.5167 47.1176 35.6102L53.2727 30.9846L51.5319 29.7344L50.6615 28.7655ZM11.1505 36.5478C11.0261 36.9541 10.995 37.3917 10.995 37.8293C10.995 40.4859 13.14 42.6424 15.7824 42.6424C18.4247 42.6424 20.5697 40.4859 20.5697 37.8293C20.5697 35.4852 18.9221 33.5474 16.746 33.1099C17.1813 33.6725 17.461 34.3913 17.461 35.1727C17.461 37.0167 15.9689 38.4856 14.1659 38.4856C12.7981 38.4856 11.6479 37.7042 11.1505 36.5478ZM32.8489 36.5478C32.7245 36.9541 32.6934 37.3917 32.6934 37.8293C32.6934 40.4859 34.8384 42.6424 37.4808 42.6424C40.1231 42.6424 42.2681 40.4859 42.2681 37.8293C42.2681 35.4852 40.6205 33.5474 38.4445 33.1099C38.8797 33.6725 39.1594 34.3913 39.1594 35.1727C39.1594 37.0167 37.6673 38.4856 35.8643 38.4856C34.5275 38.4856 33.3773 37.7042 32.8489 36.5478ZM31.4189 35.0476C32.0717 33.4224 33.3463 32.0472 35.056 31.3284C36.7658 30.5783 38.631 30.6408 40.2475 31.2971C41.864 31.9535 43.2318 33.2349 43.9468 34.9539C44.6928 36.6729 44.6307 38.5481 43.9779 40.1733C43.325 41.7985 42.0505 43.1737 40.3407 43.8926C38.631 44.6427 36.7658 44.5802 35.1493 43.9238C33.5328 43.2675 32.165 41.9861 31.45 40.2671C30.735 38.5169 30.7661 36.6416 31.4189 35.0476ZM13.9172 31.0784C15.658 30.6095 17.5543 30.7971 19.233 31.7972C20.9116 32.7661 22.0308 34.3288 22.4971 36.079C22.9634 37.8293 22.7768 39.7358 21.7821 41.4235C20.8184 43.1112 19.2641 44.2364 17.5232 44.7052C15.7824 45.174 13.8861 44.9865 12.2074 43.9863C10.5287 43.0175 9.40962 41.4548 8.94332 39.7045C8.47702 37.9543 8.66354 36.0478 9.65831 34.36C10.622 32.7036 12.1763 31.5472 13.9172 31.0784Z" fill="#E84E1B"/>
<path fill-rule="evenodd" clip-rule="evenodd" d="M53.2415 31.0156C53.2415 31.0156 52.34 25.2648 56.4123 19.2015C60.4847 13.1382 61.0753 6.32479 57.6247 0.730286C57.6247 0.730286 58.5262 8.01252 53.5524 9.95028C48.5785 11.9193 34.4341 10.7004 27.0355 13.5758L30.6416 9.04391C30.6416 9.04391 22.4969 12.0756 14.0725 13.8883C5.67909 15.7323 1.07828 19.5453 0.549805 29.6404V31.0156H5.05735C5.05735 31.0156 5.27496 25.4836 10.2488 22.2957C15.2227 19.1078 22.528 18.5139 22.528 18.5139L21.098 21.2331C21.098 21.2331 28.8697 20.3267 37.2941 19.7954C45.0347 19.2015 47.1175 18.6077 50.7857 18.9515C48.1744 23.7334 48.1433 26.6713 48.1433 30.9844H53.2415V31.0156Z" fill="#E84E1B"/>
</svg>
