<?xml version="1.0" encoding="UTF-8" standalone="no"?>
<svg
   xmlns:dc="http://purl.org/dc/elements/1.1/"
   xmlns:cc="http://creativecommons.org/ns#"
   xmlns:rdf="http://www.w3.org/1999/02/22-rdf-syntax-ns#"
   xmlns:svg="http://www.w3.org/2000/svg"
   xmlns="http://www.w3.org/2000/svg"
   xmlns:sodipodi="http://sodipodi.sourceforge.net/DTD/sodipodi-0.dtd"
   xmlns:inkscape="http://www.inkscape.org/namespaces/inkscape"
   version="1.1"
   id="svg2"
   xml:space="preserve"
   width="1122.52"
   height="793.70135"
   viewBox="0 0 1122.52 793.70135"
   sodipodi:docname="Logo_horizontal_white.ai"><metadata
     id="metadata8"><rdf:RDF><cc:Work
         rdf:about=""><dc:format>image/svg+xml</dc:format><dc:type
           rdf:resource="http://purl.org/dc/dcmitype/StillImage" /></cc:Work></rdf:RDF></metadata><defs
     id="defs6"><clipPath
       clipPathUnits="userSpaceOnUse"
       id="clipPath18"><path
         d="M 0,595.276 H 841.89 V 0 H 0 Z"
         id="path16" /></clipPath></defs><sodipodi:namedview
     pagecolor="#ffffff"
     bordercolor="#666666"
     borderopacity="1"
     objecttolerance="10"
     gridtolerance="10"
     guidetolerance="10"
     inkscape:pageopacity="0"
     inkscape:pageshadow="2"
     inkscape:window-width="640"
     inkscape:window-height="480"
     id="namedview4" /><g
     id="g10"
     inkscape:groupmode="layer"
     inkscape:label="Logo_horizontal_white"
     transform="matrix(1.3333333,0,0,-1.3333333,0,793.70133)"><g
       id="g12"><g
         id="g14"
         clip-path="url(#clipPath18)"><g
           id="g20"
           transform="translate(301.0479,281.2834)"><path
             d="m 0,0 h -23.199 c -5.156,0 -7.733,-2.579 -7.733,-7.733 V -23.2 c 0,-5.155 2.577,-7.732 7.733,-7.732 H 0 Z m 15.466,-54.132 c 0,-15.466 -7.827,-23.199 -23.48,-23.199 h -22.918 v 15.466 h 23.199 c 5.153,0 7.733,2.579 7.733,7.733 v 7.734 h -23.199 c -15.467,0 -23.2,7.733 -23.2,23.198 v 15.467 c 0,15.466 7.733,23.199 23.2,23.199 h 38.665 z"
             style="fill:#ffffff;fill-opacity:1;fill-rule:nonzero;stroke:none"
             id="path22" /></g><g
           id="g24"
           transform="translate(368.1157,274.9563)"><path
             d="m 0,0 c 0,5.154 -2.578,7.733 -7.732,7.733 h -16.873 c -5.156,0 -7.733,-2.579 -7.733,-7.733 z m -32.338,-15.467 v -1.406 c 0,-5.155 2.577,-7.731 7.733,-7.731 h 37.26 v -15.467 h -37.26 c -15.465,0 -23.199,7.733 -23.199,23.198 V -15.467 0 c 0,15.467 7.873,23.2 23.621,23.2 H -8.154 C 7.594,23.2 15.467,15.467 15.467,0 v -15.467 z"
             style="fill:#ffffff;fill-opacity:1;fill-rule:nonzero;stroke:none"
             id="path26" /></g><g
           id="g28"
           transform="translate(439.8223,274.9563)"><path
             d="m 0,0 c 0,5.154 -2.579,7.733 -7.732,7.733 h -16.873 c -5.157,0 -7.733,-2.579 -7.733,-7.733 z m -32.338,-15.467 v -1.406 c 0,-5.155 2.576,-7.731 7.733,-7.731 h 37.259 v -15.467 h -37.259 c -15.466,0 -23.199,7.733 -23.199,23.198 V -15.467 0 c 0,15.467 7.873,23.2 23.62,23.2 h 16.03 C 7.594,23.2 15.467,15.467 15.467,0 v -15.467 z"
             style="fill:#ffffff;fill-opacity:1;fill-rule:nonzero;stroke:none"
             id="path30" /></g><g
           id="g32"
           transform="translate(533.3223,234.885)"><path
             d="m 0,0 h -22.075 l -24.324,23.198 h -7.734 V 0 h -15.465 v 84.361 h 15.465 V 38.665 h 7.734 l 24.464,23.199 21.935,0 -31.636,-30.932 z"
             style="fill:#ffffff;fill-opacity:1;fill-rule:nonzero;stroke:none"
             id="path34" /></g><g
           id="g36"
           transform="translate(583.9375,281.2834)"><path
             d="m 0,0 h -23.199 c -5.156,0 -7.734,-2.579 -7.734,-7.733 V -23.2 c 0,-5.155 2.578,-7.732 7.734,-7.732 H 0 Z m -46.399,-7.733 c 0,15.466 7.733,23.199 23.2,23.199 H 0 v 22.496 h 15.466 v -84.36 h -38.665 c -15.467,0 -23.2,7.733 -23.2,23.198 z"
             style="fill:#ffffff;fill-opacity:1;fill-rule:nonzero;stroke:none"
             id="path38" /></g><g
           id="g40"
           transform="translate(654.2373,256.6779)"><path
             d="m 0,0 v 18.278 c 0,5.155 -2.578,7.734 -7.731,7.734 h -15.467 c -5.157,0 -7.734,-2.579 -7.734,-7.734 V 0 c 0,-5.155 2.577,-7.732 7.734,-7.732 H -7.731 C -2.578,-7.732 0,-5.155 0,0 m 15.467,0 c 0,-15.466 -7.734,-23.199 -23.198,-23.199 h -15.467 c -15.466,0 -23.199,7.733 -23.199,23.199 v 18.278 c 0,15.467 7.733,23.201 23.199,23.201 h 15.467 c 15.464,0 23.198,-7.734 23.198,-23.201 z"
             style="fill:#ffffff;fill-opacity:1;fill-rule:nonzero;stroke:none"
             id="path42" /></g><path
           d="m 697.121,303.78 h -15.466 v 15.465 h 15.466 z m 0,-76.628 c 0,-15.466 -7.732,-23.2 -23.199,-23.2 v 15.466 c 5.154,0 7.733,2.579 7.733,7.734 v 69.597 h 15.748 z"
           style="fill:#ffffff;fill-opacity:1;fill-rule:nonzero;stroke:none"
           id="path44" /><g
           id="g46"
           transform="translate(752.2354,256.6779)"><path
             d="m 0,0 v 18.278 c 0,5.155 -2.578,7.734 -7.732,7.734 h -15.467 c -5.156,0 -7.734,-2.579 -7.734,-7.734 V 0 c 0,-5.155 2.578,-7.732 7.734,-7.732 H -7.732 C -2.578,-7.732 0,-5.155 0,0 m 15.467,0 c 0,-15.466 -7.734,-23.199 -23.199,-23.199 h -15.467 c -15.466,0 -23.198,7.733 -23.198,23.199 v 18.278 c 0,15.467 7.732,23.201 23.198,23.201 h 15.467 c 15.465,0 23.199,-7.734 23.199,-23.201 z"
             style="fill:#ffffff;fill-opacity:1;fill-rule:nonzero;stroke:none"
             id="path48" /></g><g
           id="g50"
           transform="translate(345.5005,204.7512)"><path
             d="m 0,0 c -1.224,-0.437 -3.597,-0.989 -5.857,-0.989 -3.214,0 -5.556,0.825 -7.225,2.447 -1.784,1.706 -2.752,4.386 -2.73,7.448 0.045,6.776 4.636,10.295 10.439,10.295 2.242,0 3.955,-0.429 4.825,-0.846 l -0.855,-3.506 c -0.939,0.418 -2.095,0.724 -3.907,0.724 -3.397,0 -6.009,-2.011 -6.009,-6.573 0,-4.291 2.363,-6.484 5.465,-6.484 0.815,0 1.466,0.093 1.765,0.228 v 4.343 h -2.676 v 3.391 H 0 Z"
             style="fill:#ffffff;fill-opacity:1;fill-rule:nonzero;stroke:none"
             id="path52" /></g><g
           id="g54"
           transform="translate(356.8325,212.6819)"><path
             d="M 0,0 C 0.01,1.307 -0.474,3.027 -2.242,3.027 -3.94,3.027 -4.628,1.268 -4.725,0 Z m -4.702,-2.955 c 0.108,-1.971 1.781,-2.836 3.752,-2.836 1.387,0 2.539,0.211 3.593,0.572 l 0.573,-2.944 c -1.334,-0.544 -3.046,-0.833 -4.83,-0.833 -4.588,0 -7.192,2.761 -7.192,7.246 0,4.01 2.352,7.702 6.802,7.702 4.192,0 5.965,-3.267 5.965,-7.065 0,-0.854 -0.07,-1.487 -0.147,-1.842 z"
             style="fill:#ffffff;fill-opacity:1;fill-rule:nonzero;stroke:none"
             id="path56" /></g><g
           id="g58"
           transform="translate(371.3838,212.6819)"><path
             d="M 0,0 C 0.009,1.307 -0.475,3.027 -2.242,3.027 -3.94,3.027 -4.629,1.268 -4.725,0 Z m -4.701,-2.955 c 0.106,-1.971 1.779,-2.836 3.751,-2.836 1.387,0 2.538,0.211 3.593,0.572 L 3.216,-8.163 C 1.881,-8.707 0.17,-8.996 -1.615,-8.996 c -4.586,0 -7.192,2.761 -7.192,7.246 0,4.01 2.352,7.702 6.803,7.702 4.191,0 5.965,-3.267 5.965,-7.065 0,-0.854 -0.07,-1.487 -0.146,-1.842 z"
             style="fill:#ffffff;fill-opacity:1;fill-rule:nonzero;stroke:none"
             id="path60" /></g><g
           id="g62"
           transform="translate(382.1309,212.1945)"><path
             d="M 0,0 H 0.059 C 0.374,0.674 0.685,1.265 1.001,1.811 L 3.6,6.143 H 8.603 L 3.946,0.249 9.169,-8.24 H 4.036 L 0.991,-2.334 0,-3.705 V -8.24 H -4.281 V 12.465 H 0 Z"
             style="fill:#ffffff;fill-opacity:1;fill-rule:nonzero;stroke:none"
             id="path64" /></g><g
           id="g66"
           transform="translate(392.6191,207.719)"><path
             d="m 0,0 c 0.739,-0.454 2.262,-0.976 3.465,-0.976 1.24,0 1.816,0.452 1.816,1.216 0,0.748 -0.448,1.136 -1.981,1.748 -2.797,1.086 -3.758,2.675 -3.745,4.25 0,2.667 2.152,4.677 5.515,4.677 1.537,0 2.864,-0.364 3.711,-0.788 l -0.747,-3 C 7.415,7.461 6.336,7.871 5.25,7.871 4.192,7.871 3.617,7.394 3.617,6.692 3.617,6.02 4.118,5.653 5.755,4.987 8.301,3.978 9.336,2.546 9.348,0.59 c 0,-2.765 -2.098,-4.623 -5.877,-4.623 -1.672,0 -3.276,0.392 -4.241,0.954 z"
             style="fill:#ffffff;fill-opacity:1;fill-rule:nonzero;stroke:none"
             id="path68" /></g><path
           d="m 410.011,224.659 h 4.292 v -20.705 h -4.292 z"
           style="fill:#ffffff;fill-opacity:1;fill-rule:nonzero;stroke:none"
           id="path70" /><g
           id="g72"
           transform="translate(425.7363,212.6819)"><path
             d="M 0,0 C 0.009,1.307 -0.475,3.027 -2.242,3.027 -3.941,3.027 -4.63,1.268 -4.725,0 Z m -4.702,-2.955 c 0.107,-1.971 1.78,-2.836 3.753,-2.836 1.386,0 2.537,0.211 3.592,0.572 l 0.573,-2.944 c -1.335,-0.544 -3.045,-0.833 -4.831,-0.833 -4.586,0 -7.192,2.761 -7.192,7.246 0,4.01 2.352,7.702 6.802,7.702 4.191,0 5.966,-3.267 5.966,-7.065 0,-0.854 -0.071,-1.487 -0.147,-1.842 z"
             style="fill:#ffffff;fill-opacity:1;fill-rule:nonzero;stroke:none"
             id="path74" /></g><g
           id="g76"
           transform="translate(439.3262,210.8156)"><path
             d="m 0,0 c -2.029,0.002 -3.835,-0.526 -3.835,-2.324 0,-1.238 0.77,-1.789 1.66,-1.789 0.953,0 1.806,0.621 2.092,1.527 C -0.018,-2.368 0,-2.104 0,-1.854 Z M 0.545,-6.861 0.298,-5.437 H 0.211 c -0.892,-1.133 -2.255,-1.721 -3.829,-1.721 -2.702,0 -4.39,2.016 -4.39,4.388 0,3.759 3.342,5.464 7.879,5.467 v 0.226 c 0,0.876 -0.484,1.889 -2.449,1.886 -1.37,0 -2.726,-0.443 -3.653,-1.003 l -0.787,2.781 c 0.94,0.538 2.813,1.231 5.254,1.231 4.662,0 5.939,-2.899 5.939,-6.138 v -5.117 c 0,-1.303 0.063,-2.567 0.221,-3.424 z"
             style="fill:#ffffff;fill-opacity:1;fill-rule:nonzero;stroke:none"
             id="path78" /></g><g
           id="g80"
           transform="translate(446.7822,213.7199)"><path
             d="m 0,0 c 0,1.907 -0.047,3.348 -0.118,4.617 h 3.69 L 3.745,2.122 H 3.854 C 4.561,4.056 6.136,4.914 7.427,4.914 7.832,4.914 8.04,4.9 8.342,4.835 V 0.747 C 8.026,0.812 7.699,0.849 7.244,0.849 5.854,0.849 4.737,0.069 4.401,-1.354 4.332,-1.648 4.292,-2.049 4.292,-2.481 V -9.766 H 0 Z"
             style="fill:#ffffff;fill-opacity:1;fill-rule:nonzero;stroke:none"
             id="path82" /></g><g
           id="g84"
           transform="translate(457.1611,213.8225)"><path
             d="M 0,0 C 0,1.727 -0.059,3.201 -0.118,4.515 H 3.596 L 3.8,2.62 h 0.082 c 0.627,0.993 2.027,2.192 4.158,2.192 2.875,0 4.752,-2.026 4.752,-5.953 V -9.868 H 8.499 v 8.28 C 8.499,0.073 7.951,1.31 6.481,1.31 5.43,1.31 4.759,0.574 4.461,-0.261 4.35,-0.543 4.293,-0.985 4.293,-1.432 V -9.868 H 0 Z"
             style="fill:#ffffff;fill-opacity:1;fill-rule:nonzero;stroke:none"
             id="path86" /></g><path
           d="m 473.24,218.337 h 4.294 v -14.383 h -4.294 z m 4.382,3.937 c 0.011,-1.243 -0.896,-2.19 -2.288,-2.19 -1.31,0 -2.213,0.947 -2.202,2.19 -0.011,1.281 0.921,2.199 2.246,2.199 1.344,0 2.231,-0.913 2.244,-2.199"
           style="fill:#ffffff;fill-opacity:1;fill-rule:nonzero;stroke:none"
           id="path88" /><g
           id="g90"
           transform="translate(480.8545,213.8225)"><path
             d="M 0,0 C 0,1.727 -0.059,3.201 -0.118,4.515 H 3.595 L 3.798,2.62 h 0.084 c 0.628,0.993 2.027,2.192 4.157,2.192 2.874,0 4.753,-2.026 4.753,-5.953 V -9.868 H 8.499 v 8.28 C 8.499,0.073 7.95,1.31 6.481,1.31 5.43,1.31 4.758,0.574 4.461,-0.261 4.349,-0.543 4.292,-0.985 4.292,-1.432 V -9.868 H 0 Z"
             style="fill:#ffffff;fill-opacity:1;fill-rule:nonzero;stroke:none"
             id="path92" /></g><g
           id="g94"
           transform="translate(505.3271,212.6584)"><path
             d="m 0,0 c 0,0.313 -0.04,0.64 -0.11,0.894 -0.27,1.013 -0.989,1.742 -2.054,1.742 -1.552,0 -2.627,-1.604 -2.627,-4.133 0,-2.304 0.968,-3.885 2.602,-3.885 0.96,0 1.751,0.612 2.043,1.577 C -0.036,-3.469 0,-3.014 0,-2.638 Z M 4.409,5.679 C 4.339,4.633 4.28,3.329 4.28,1.312 v -8.065 c 0,-2.865 -0.561,-4.953 -2.052,-6.302 -1.42,-1.259 -3.372,-1.713 -5.482,-1.713 -1.728,0 -3.488,0.342 -4.697,0.977 l 0.836,3.26 c 0.847,-0.463 2.224,-0.934 3.74,-0.934 2.062,0 3.423,1.176 3.423,3.696 v 0.909 h -0.06 c -0.738,-1.098 -2.008,-1.728 -3.492,-1.728 -3.45,0 -5.601,3.076 -5.601,6.989 0,4.683 2.743,7.575 6.014,7.575 1.723,0 2.871,-0.785 3.551,-1.941 h 0.059 l 0.165,1.644 z"
             style="fill:#ffffff;fill-opacity:1;fill-rule:nonzero;stroke:none"
             id="path96" /></g><g
           id="g98"
           transform="translate(526.8437,212.6584)"><path
             d="m 0,0 c 0,0.313 -0.04,0.64 -0.11,0.894 -0.269,1.013 -0.987,1.742 -2.054,1.742 -1.551,0 -2.627,-1.604 -2.627,-4.133 0,-2.304 0.969,-3.885 2.603,-3.885 0.959,0 1.751,0.612 2.042,1.577 C -0.034,-3.469 0,-3.014 0,-2.638 Z M 4.411,5.679 C 4.341,4.633 4.282,3.329 4.282,1.312 v -8.065 c 0,-2.865 -0.562,-4.953 -2.053,-6.302 -1.42,-1.259 -3.372,-1.713 -5.481,-1.713 -1.728,0 -3.488,0.342 -4.697,0.977 l 0.834,3.26 c 0.849,-0.463 2.225,-0.934 3.742,-0.934 2.061,0 3.423,1.176 3.423,3.696 v 0.909 h -0.06 c -0.739,-1.098 -2.01,-1.728 -3.492,-1.728 -3.45,0 -5.602,3.076 -5.602,6.989 0,4.683 2.744,7.575 6.014,7.575 1.723,0 2.872,-0.785 3.551,-1.941 H 0.52 l 0.164,1.644 z"
             style="fill:#ffffff;fill-opacity:1;fill-rule:nonzero;stroke:none"
             id="path100" /></g><g
           id="g102"
           transform="translate(542.4961,212.6819)"><path
             d="M 0,0 C 0.01,1.307 -0.474,3.027 -2.242,3.027 -3.939,3.027 -4.629,1.268 -4.725,0 Z m -4.701,-2.955 c 0.107,-1.971 1.78,-2.836 3.751,-2.836 1.387,0 2.538,0.211 3.594,0.572 l 0.572,-2.944 c -1.334,-0.544 -3.045,-0.833 -4.83,-0.833 -4.587,0 -7.192,2.761 -7.192,7.246 0,4.01 2.352,7.702 6.801,7.702 4.193,0 5.967,-3.267 5.967,-7.065 0,-0.854 -0.072,-1.487 -0.148,-1.842 z"
             style="fill:#ffffff;fill-opacity:1;fill-rule:nonzero;stroke:none"
             id="path104" /></g><g
           id="g106"
           transform="translate(557.0459,212.6819)"><path
             d="M 0,0 C 0.011,1.307 -0.474,3.027 -2.241,3.027 -3.939,3.027 -4.628,1.268 -4.725,0 Z m -4.699,-2.955 c 0.105,-1.971 1.779,-2.836 3.75,-2.836 1.388,0 2.539,0.211 3.594,0.572 l 0.573,-2.944 c -1.335,-0.544 -3.047,-0.833 -4.831,-0.833 -4.586,0 -7.192,2.761 -7.192,7.246 0,4.01 2.352,7.702 6.802,7.702 4.191,0 5.965,-3.267 5.965,-7.065 0,-0.854 -0.07,-1.487 -0.147,-1.842 z"
             style="fill:#ffffff;fill-opacity:1;fill-rule:nonzero;stroke:none"
             id="path108" /></g><g
           id="g110"
           transform="translate(567.793,212.1945)"><path
             d="m 0,0 h 0.06 c 0.314,0.674 0.626,1.265 0.942,1.811 l 2.6,4.332 H 8.603 L 3.947,0.249 9.169,-8.24 H 4.036 L 0.99,-2.334 0,-3.705 V -8.24 H -4.281 V 12.465 H 0 Z"
             style="fill:#ffffff;fill-opacity:1;fill-rule:nonzero;stroke:none"
             id="path112" /></g><g
           id="g114"
           transform="translate(588.7432,222.3713)"><path
             d="M 0,0 V -4.034 H 3.098 V -7.163 H 0 v -5.619 c 0,-1.714 0.509,-2.399 1.67,-2.399 0.518,0 0.917,0.051 1.235,0.12 l 0.035,-3.282 c -0.564,-0.188 -1.556,-0.343 -2.734,-0.343 -1.345,0 -2.483,0.429 -3.195,1.148 -0.818,0.822 -1.231,2.111 -1.231,4.218 v 6.157 h -1.845 v 3.129 h 1.845 v 3.051 z"
             style="fill:#ffffff;fill-opacity:1;fill-rule:nonzero;stroke:none"
             id="path116" /></g><g
           id="g118"
           transform="translate(594.1748,224.6594)"><path
             d="m 0,0 h 4.293 v -7.985 h 0.059 c 0.429,0.589 0.956,1.046 1.598,1.404 0.628,0.349 1.419,0.556 2.214,0.556 2.789,0 4.628,-2.061 4.628,-6.192 v -8.488 H 8.5 v 8.152 c 0,1.742 -0.535,3.022 -2.044,3.022 -1.028,0 -1.706,-0.646 -2.017,-1.513 -0.096,-0.259 -0.146,-0.684 -0.146,-1.008 v -8.653 H 0 Z"
             style="fill:#ffffff;fill-opacity:1;fill-rule:nonzero;stroke:none"
             id="path120" /></g><path
           d="m 610.254,218.337 h 4.293 v -14.383 h -4.293 z m 4.381,3.937 c 0.011,-1.243 -0.898,-2.19 -2.289,-2.19 -1.31,0 -2.212,0.947 -2.201,2.19 -0.011,1.281 0.919,2.199 2.246,2.199 1.343,0 2.231,-0.913 2.244,-2.199"
           style="fill:#ffffff;fill-opacity:1;fill-rule:nonzero;stroke:none"
           id="path122" /><g
           id="g124"
           transform="translate(617.8672,213.8225)"><path
             d="M 0,0 C 0,1.727 -0.058,3.201 -0.117,4.515 H 3.595 L 3.8,2.62 h 0.083 c 0.627,0.993 2.026,2.192 4.157,2.192 2.874,0 4.752,-2.026 4.752,-5.953 V -9.868 H 8.5 v 8.28 C 8.5,0.073 7.952,1.31 6.481,1.31 5.43,1.31 4.76,0.574 4.462,-0.261 4.35,-0.543 4.293,-0.985 4.293,-1.432 V -9.868 H 0 Z"
             style="fill:#ffffff;fill-opacity:1;fill-rule:nonzero;stroke:none"
             id="path126" /></g><g
           id="g128"
           transform="translate(642.3398,212.6584)"><path
             d="m 0,0 c 0,0.313 -0.04,0.64 -0.11,0.894 -0.27,1.013 -0.989,1.742 -2.054,1.742 -1.552,0 -2.627,-1.604 -2.627,-4.133 0,-2.304 0.969,-3.885 2.603,-3.885 0.959,0 1.751,0.612 2.042,1.577 C -0.035,-3.469 0,-3.014 0,-2.638 Z M 4.409,5.679 C 4.34,4.633 4.28,3.329 4.28,1.312 v -8.065 c 0,-2.865 -0.56,-4.953 -2.051,-6.302 -1.42,-1.259 -3.372,-1.713 -5.482,-1.713 -1.728,0 -3.487,0.342 -4.697,0.977 l 0.835,3.26 c 0.849,-0.463 2.224,-0.934 3.74,-0.934 2.062,0 3.423,1.176 3.423,3.696 V -6.86 H -0.01 c -0.74,-1.098 -2.01,-1.728 -3.493,-1.728 -3.449,0 -5.601,3.076 -5.601,6.989 0,4.683 2.743,7.575 6.013,7.575 1.723,0 2.872,-0.785 3.551,-1.941 h 0.06 l 0.164,1.644 z"
             style="fill:#ffffff;fill-opacity:1;fill-rule:nonzero;stroke:none"
             id="path130" /></g><g
           id="g132"
           transform="translate(649.8604,207.719)"><path
             d="m 0,0 c 0.739,-0.454 2.262,-0.976 3.465,-0.976 1.24,0 1.816,0.452 1.816,1.216 0,0.748 -0.449,1.136 -1.98,1.748 -2.797,1.086 -3.759,2.675 -3.746,4.25 0,2.667 2.151,4.677 5.514,4.677 1.537,0 2.865,-0.364 3.712,-0.788 l -0.747,-3 C 7.414,7.461 6.335,7.871 5.249,7.871 4.19,7.871 3.617,7.394 3.617,6.692 3.617,6.02 4.116,5.653 5.755,4.987 8.301,3.978 9.336,2.546 9.347,0.59 c 0,-2.765 -2.097,-4.623 -5.876,-4.623 -1.672,0 -3.277,0.392 -4.242,0.954 z"
             style="fill:#ffffff;fill-opacity:1;fill-rule:nonzero;stroke:none"
             id="path134" /></g><g
           id="g136"
           transform="translate(124.0146,294.4026)"><path
             d="m 0,0 c 5.584,1.496 11.744,0.862 17.147,-2.259 5.404,-3.119 9.034,-8.137 10.529,-13.72 1.496,-5.584 0.862,-11.743 -2.258,-17.147 -3.121,-5.405 -8.136,-9.033 -13.719,-10.529 -5.585,-1.496 -11.744,-0.863 -17.149,2.259 -5.404,3.119 -9.032,8.134 -10.53,13.718 -1.494,5.586 -0.861,11.744 2.26,17.149 C -10.6,-5.125 -5.584,-1.497 0,0 m 56.298,-12.616 c 2.096,5.176 6.167,9.557 11.716,11.909 5.549,2.353 11.529,2.231 16.705,0.137 5.177,-2.096 9.558,-6.167 11.91,-11.715 2.352,-5.55 2.231,-11.53 0.137,-16.706 -2.095,-5.176 -6.167,-9.556 -11.717,-11.908 -5.548,-2.352 -11.528,-2.232 -16.704,-0.139 -5.176,2.096 -9.556,6.168 -11.908,11.717 -2.352,5.548 -2.232,11.528 -0.139,16.705 m 4.558,-4.849 c -0.353,-1.295 -0.543,-2.656 -0.543,-4.061 0,-8.525 6.912,-15.435 15.435,-15.435 8.524,0 15.434,6.91 15.434,15.435 0,7.45 -5.281,13.669 -12.302,15.114 1.432,-1.814 2.288,-4.104 2.288,-6.594 0,-5.878 -4.766,-10.644 -10.645,-10.644 -4.286,0 -7.98,2.532 -9.667,6.185 m -69.824,0 c -0.353,-1.295 -0.542,-2.656 -0.542,-4.061 0,-8.525 6.91,-15.435 15.434,-15.435 8.524,0 15.433,6.91 15.433,15.435 0,7.45 -5.279,13.669 -12.301,15.114 1.432,-1.814 2.288,-4.104 2.288,-6.594 0,-5.878 -4.767,-10.644 -10.645,-10.644 -4.287,0 -7.981,2.532 -9.667,6.185 M 118.137,7.426 102.228,-3.689 C 98.722,1.586 93.75,5.527 88.11,7.812 80.789,10.773 72.333,10.942 64.486,7.616 56.64,4.291 50.882,-1.903 47.918,-9.224 c -2.961,-7.324 -3.131,-15.778 0.195,-23.626 3.325,-7.845 9.52,-13.603 16.842,-16.567 7.322,-2.962 15.776,-3.133 23.623,0.193 7.847,3.326 13.605,9.521 16.568,16.843 2.248,5.554 2.887,11.761 1.613,17.86 l 19.753,14.784 -5.586,3.973 z M 21.352,5.023 C 13.938,9.304 5.489,10.172 -2.175,8.118 -9.84,6.065 -16.722,1.087 -21.002,-6.326 c -1.776,-3.074 -2.963,-6.328 -3.6,-9.63 h -20.121 v -11.741 h 20.129 c 0.14,-0.725 0.304,-1.444 0.495,-2.156 1.522,-5.678 4.652,-10.929 9.186,-15.009 l -2.412,-4.179 2.353,-1.36 -3.625,-6.28 -2.355,1.36 -15.845,-27.443 c -1.776,-3.08 -0.712,-7.051 2.368,-8.829 3.078,-1.778 7.051,-0.713 8.827,2.365 l 15.845,27.443 -2.356,1.359 3.627,6.28 2.354,-1.359 2.414,4.18 c 5.801,-1.888 11.913,-1.971 17.592,-0.449 7.664,2.052 14.545,7.032 18.826,14.445 4.279,7.412 5.15,15.861 3.095,23.525 -2.052,7.665 -7.031,14.547 -14.443,18.827"
             style="fill:#ffffff;fill-opacity:1;fill-rule:nonzero;stroke:none"
             id="path138" /></g><g
           id="g140"
           transform="translate(250.5269,294.6653)"><path
             d="m 0,0 c 0,0 -2.908,18.409 10.172,37.786 13.08,19.375 15.017,41.173 3.875,59.097 0,0 2.907,-23.252 -13.079,-29.55 -15.987,-6.297 -61.521,-2.422 -85.258,-11.625 l 11.626,14.531 c 0,0 -26.157,-9.687 -53.285,-15.5 -27.128,-5.814 -41.908,-18.06 -43.598,-50.38 V 0 h 14.531 c 0,0 0.727,17.683 16.713,27.854 15.986,10.173 39.48,12.112 39.48,12.112 l -4.602,-8.72 c 0,0 24.95,2.903 52.077,4.599 24.884,1.919 31.635,3.829 43.354,2.665 C -16.352,23.163 -16.471,13.795 -16.471,0 Z"
             style="fill:#ffffff;fill-opacity:1;fill-rule:evenodd;stroke:none"
             id="path142" /></g></g></g></g></svg>