<?xml version="1.0" encoding="utf-8"?>
<!-- Generator: Adobe Illustrator 26.0.1, SVG Export Plug-In . SVG Version: 6.00 Build 0)  -->
<svg version="1.1" xmlns="http://www.w3.org/2000/svg" xmlns:xlink="http://www.w3.org/1999/xlink" x="0px" y="0px"
	 viewBox="0 0 713.27 205.44" style="enable-background:new 0 0 713.27 205.44;" xml:space="preserve">
<style type="text/css">
	.st0{fill:#FFFFFF;}
	.st1{fill-rule:evenodd;clip-rule:evenodd;fill:#FFFFFF;}
</style>
<g>
	<g>
		<path class="st0" d="M251.18,174.06c0,15.47-7.83,23.2-23.48,23.2h-22.92v-15.47h23.2c5.15,0,7.73-2.58,7.73-7.73v-7.73h-23.2
			c-15.47,0-23.2-7.73-23.2-23.2v-15.47c0-15.47,7.73-23.2,23.2-23.2h38.66V174.06z M235.72,119.93h-23.2
			c-5.16,0-7.73,2.58-7.73,7.73v15.47c0,5.16,2.58,7.73,7.73,7.73h23.2V119.93z"/>
		<path class="st0" d="M270.44,141.72v1.41c0,5.16,2.58,7.73,7.73,7.73h37.26v15.47h-37.26c-15.47,0-23.2-7.73-23.2-23.2v-1.41
			v-15.47c0-15.47,7.87-23.2,23.62-23.2h16.03c15.75,0,23.62,7.73,23.62,23.2v15.47H270.44z M302.78,126.25
			c0-5.15-2.58-7.73-7.73-7.73h-16.87c-5.16,0-7.73,2.58-7.73,7.73H302.78z"/>
		<path class="st0" d="M342.15,141.72v1.41c0,5.16,2.58,7.73,7.73,7.73h37.26v15.47h-37.26c-15.47,0-23.2-7.73-23.2-23.2v-1.41
			v-15.47c0-15.47,7.87-23.2,23.62-23.2h16.03c15.75,0,23.62,7.73,23.62,23.2v15.47H342.15z M374.49,126.25
			c0-5.15-2.58-7.73-7.73-7.73h-16.87c-5.16,0-7.73,2.58-7.73,7.73H374.49z"/>
		<path class="st0" d="M467.99,166.32h-22.07l-24.32-23.2h-7.73v23.2h-15.47V81.96h15.47v45.7h7.73l24.46-23.2h21.93l-31.64,30.93
			L467.99,166.32z"/>
		<path class="st0" d="M472.21,127.66c0-15.47,7.73-23.2,23.2-23.2h23.2v-22.5h15.47v84.36h-38.66c-15.47,0-23.2-7.73-23.2-23.2
			V127.66z M518.6,119.93h-23.2c-5.16,0-7.73,2.58-7.73,7.73v15.47c0,5.16,2.58,7.73,7.73,7.73h23.2V119.93z"/>
		<path class="st0" d="M604.37,144.53c0,15.47-7.73,23.2-23.2,23.2h-15.47c-15.47,0-23.2-7.73-23.2-23.2v-18.28
			c0-15.47,7.73-23.2,23.2-23.2h15.47c15.47,0,23.2,7.73,23.2,23.2V144.53z M588.91,144.53v-18.28c0-5.15-2.58-7.73-7.73-7.73
			h-15.47c-5.16,0-7.73,2.58-7.73,7.73v18.28c0,5.15,2.58,7.73,7.73,7.73h15.47C586.33,152.26,588.91,149.69,588.91,144.53z"/>
		<path class="st0" d="M631.79,174.06c0,15.47-7.73,23.2-23.2,23.2v-15.47c5.15,0,7.73-2.58,7.73-7.73v-69.6h15.75L631.79,174.06z
			 M631.79,97.43h-15.47V81.96h15.47V97.43z"/>
		<path class="st0" d="M702.37,144.53c0,15.47-7.73,23.2-23.2,23.2H663.7c-15.47,0-23.2-7.73-23.2-23.2v-18.28
			c0-15.47,7.73-23.2,23.2-23.2h15.47c15.47,0,23.2,7.73,23.2,23.2V144.53z M686.9,144.53v-18.28c0-5.15-2.58-7.73-7.73-7.73H663.7
			c-5.16,0-7.73,2.58-7.73,7.73v18.28c0,5.15,2.58,7.73,7.73,7.73h15.47C684.32,152.26,686.9,149.69,686.9,144.53z"/>
	</g>
	<g>
		<path class="st0" d="M280.17,196.46c-1.22,0.44-3.6,0.99-5.86,0.99c-3.21,0-5.56-0.83-7.22-2.45c-1.78-1.71-2.75-4.39-2.73-7.45
			c0.04-6.78,4.64-10.3,10.44-10.3c2.24,0,3.95,0.43,4.83,0.85l-0.86,3.51c-0.94-0.42-2.09-0.72-3.91-0.72
			c-3.4,0-6.01,2.01-6.01,6.57c0,4.29,2.36,6.48,5.47,6.48c0.81,0,1.47-0.09,1.76-0.23v-4.34h-2.68v-3.39h6.76V196.46z"/>
		<path class="st0" d="M286.8,191.48c0.11,1.97,1.78,2.84,3.75,2.84c1.39,0,2.54-0.21,3.59-0.57l0.57,2.94
			c-1.33,0.54-3.05,0.83-4.83,0.83c-4.59,0-7.19-2.76-7.19-7.25c0-4.01,2.35-7.7,6.8-7.7c4.19,0,5.97,3.27,5.97,7.07
			c0,0.85-0.07,1.49-0.15,1.84H286.8z M291.5,188.53c0.01-1.31-0.47-3.03-2.24-3.03c-1.7,0-2.39,1.76-2.48,3.03H291.5z"/>
		<path class="st0" d="M301.35,191.48c0.11,1.97,1.78,2.84,3.75,2.84c1.39,0,2.54-0.21,3.59-0.57l0.57,2.94
			c-1.34,0.54-3.05,0.83-4.83,0.83c-4.59,0-7.19-2.76-7.19-7.25c0-4.01,2.35-7.7,6.8-7.7c4.19,0,5.97,3.27,5.97,7.07
			c0,0.85-0.07,1.49-0.15,1.84H301.35z M306.05,188.53c0.01-1.31-0.47-3.03-2.24-3.03c-1.7,0-2.39,1.76-2.48,3.03H306.05z"/>
		<path class="st0" d="M316.8,189.01h0.06c0.31-0.67,0.63-1.26,0.94-1.81l2.6-4.33h5l-4.66,5.89l5.22,8.49h-5.13l-3.05-5.91
			l-0.99,1.37v4.54h-4.28v-20.71h4.28V189.01z"/>
		<path class="st0" d="M327.29,193.49c0.74,0.45,2.26,0.98,3.46,0.98c1.24,0,1.82-0.45,1.82-1.22c0-0.75-0.45-1.14-1.98-1.75
			c-2.8-1.09-3.76-2.67-3.75-4.25c0-2.67,2.15-4.68,5.52-4.68c1.54,0,2.86,0.36,3.71,0.79l-0.75,3c-0.62-0.33-1.7-0.74-2.78-0.74
			c-1.06,0-1.63,0.48-1.63,1.18c0,0.67,0.5,1.04,2.14,1.71c2.55,1.01,3.58,2.44,3.59,4.4c0,2.76-2.1,4.62-5.88,4.62
			c-1.67,0-3.28-0.39-4.24-0.95L327.29,193.49z"/>
		<path class="st0" d="M344.68,176.55h4.29v20.71h-4.29V176.55z"/>
		<path class="st0" d="M355.7,191.48c0.11,1.97,1.78,2.84,3.75,2.84c1.39,0,2.54-0.21,3.59-0.57l0.57,2.94
			c-1.34,0.54-3.05,0.83-4.83,0.83c-4.59,0-7.19-2.76-7.19-7.25c0-4.01,2.35-7.7,6.8-7.7c4.19,0,5.97,3.27,5.97,7.07
			c0,0.85-0.07,1.49-0.15,1.84H355.7z M360.4,188.53c0.01-1.31-0.47-3.03-2.24-3.03c-1.7,0-2.39,1.76-2.48,3.03H360.4z"/>
		<path class="st0" d="M374.54,197.26l-0.25-1.43h-0.09c-0.89,1.13-2.26,1.72-3.83,1.72c-2.7,0-4.39-2.02-4.39-4.39
			c0-3.76,3.34-5.46,7.88-5.47v-0.22c0-0.88-0.48-1.89-2.45-1.89c-1.37,0-2.73,0.44-3.65,1l-0.79-2.78
			c0.94-0.54,2.81-1.23,5.25-1.23c4.66,0,5.94,2.9,5.94,6.14v5.12c0,1.3,0.06,2.57,0.22,3.43H374.54z M373.99,190.39
			c-2.03,0-3.83,0.53-3.83,2.32c0,1.24,0.77,1.79,1.66,1.79c0.95,0,1.81-0.62,2.09-1.53c0.07-0.22,0.08-0.48,0.08-0.73V190.39z"/>
		<path class="st0" d="M381.45,187.49c0-1.91-0.05-3.35-0.12-4.62h3.69l0.17,2.5h0.11c0.71-1.93,2.28-2.79,3.57-2.79
			c0.41,0,0.61,0.01,0.92,0.08v4.09c-0.32-0.07-0.64-0.1-1.1-0.1c-1.39,0-2.51,0.78-2.84,2.2c-0.07,0.29-0.11,0.69-0.11,1.13v7.28
			h-4.29V187.49z"/>
		<path class="st0" d="M391.83,187.39c0-1.73-0.06-3.2-0.12-4.51h3.71l0.2,1.89h0.08c0.63-0.99,2.03-2.19,4.16-2.19
			c2.87,0,4.75,2.03,4.75,5.95v8.73h-4.29v-8.28c0-1.66-0.55-2.9-2.02-2.9c-1.05,0-1.72,0.74-2.02,1.57
			c-0.11,0.28-0.17,0.72-0.17,1.17v8.44h-4.29V187.39z"/>
		<path class="st0" d="M412.29,178.94c0.01,1.24-0.9,2.19-2.29,2.19c-1.31,0-2.21-0.95-2.2-2.19c-0.01-1.28,0.92-2.2,2.25-2.2
			C411.39,176.74,412.28,177.65,412.29,178.94z M407.91,197.26v-14.38h4.29v14.38H407.91z"/>
		<path class="st0" d="M415.52,187.39c0-1.73-0.06-3.2-0.12-4.51h3.71l0.2,1.89h0.08c0.63-0.99,2.03-2.19,4.16-2.19
			c2.87,0,4.75,2.03,4.75,5.95v8.73h-4.29v-8.28c0-1.66-0.55-2.9-2.02-2.9c-1.05,0-1.72,0.74-2.02,1.57
			c-0.11,0.28-0.17,0.72-0.17,1.17v8.44h-4.29V187.39z"/>
		<path class="st0" d="M444.4,182.87c-0.07,1.05-0.13,2.35-0.13,4.37v8.06c0,2.87-0.56,4.95-2.05,6.3
			c-1.42,1.26-3.37,1.71-5.48,1.71c-1.73,0-3.49-0.34-4.7-0.98l0.84-3.26c0.85,0.46,2.22,0.93,3.74,0.93c2.06,0,3.42-1.18,3.42-3.7
			v-0.91h-0.06c-0.74,1.1-2.01,1.73-3.49,1.73c-3.45,0-5.6-3.08-5.6-6.99c0-4.68,2.74-7.57,6.01-7.57c1.72,0,2.87,0.78,3.55,1.94
			h0.06l0.16-1.64H444.4z M439.99,188.55c0-0.31-0.04-0.64-0.11-0.89c-0.27-1.01-0.99-1.74-2.05-1.74c-1.55,0-2.63,1.6-2.63,4.13
			c0,2.3,0.97,3.89,2.6,3.89c0.96,0,1.75-0.61,2.04-1.58c0.11-0.34,0.15-0.79,0.15-1.17V188.55z"/>
		<path class="st0" d="M465.92,182.87c-0.07,1.05-0.13,2.35-0.13,4.37v8.06c0,2.87-0.56,4.95-2.05,6.3
			c-1.42,1.26-3.37,1.71-5.48,1.71c-1.73,0-3.49-0.34-4.7-0.98l0.83-3.26c0.85,0.46,2.23,0.93,3.74,0.93c2.06,0,3.42-1.18,3.42-3.7
			v-0.91h-0.06c-0.74,1.1-2.01,1.73-3.49,1.73c-3.45,0-5.6-3.08-5.6-6.99c0-4.68,2.74-7.57,6.01-7.57c1.72,0,2.87,0.78,3.55,1.94
			h0.06l0.16-1.64H465.92z M461.51,188.55c0-0.31-0.04-0.64-0.11-0.89c-0.27-1.01-0.99-1.74-2.05-1.74c-1.55,0-2.63,1.6-2.63,4.13
			c0,2.3,0.97,3.89,2.6,3.89c0.96,0,1.75-0.61,2.04-1.58c0.11-0.34,0.15-0.79,0.15-1.17V188.55z"/>
		<path class="st0" d="M472.46,191.48c0.11,1.97,1.78,2.84,3.75,2.84c1.39,0,2.54-0.21,3.59-0.57l0.57,2.94
			c-1.33,0.54-3.05,0.83-4.83,0.83c-4.59,0-7.19-2.76-7.19-7.25c0-4.01,2.35-7.7,6.8-7.7c4.19,0,5.97,3.27,5.97,7.07
			c0,0.85-0.07,1.49-0.15,1.84H472.46z M477.16,188.53c0.01-1.31-0.47-3.03-2.24-3.03c-1.7,0-2.39,1.76-2.48,3.03H477.16z"/>
		<path class="st0" d="M487.01,191.48c0.11,1.97,1.78,2.84,3.75,2.84c1.39,0,2.54-0.21,3.59-0.57l0.57,2.94
			c-1.34,0.54-3.05,0.83-4.83,0.83c-4.59,0-7.19-2.76-7.19-7.25c0-4.01,2.35-7.7,6.8-7.7c4.19,0,5.97,3.27,5.97,7.07
			c0,0.85-0.07,1.49-0.15,1.84H487.01z M491.71,188.53c0.01-1.31-0.47-3.03-2.24-3.03c-1.7,0-2.39,1.76-2.48,3.03H491.71z"/>
		<path class="st0" d="M502.46,189.01h0.06c0.31-0.67,0.63-1.26,0.94-1.81l2.6-4.33h5l-4.66,5.89l5.22,8.49h-5.13l-3.05-5.91
			l-0.99,1.37v4.54h-4.28v-20.71h4.28V189.01z"/>
		<path class="st0" d="M523.41,178.84v4.03h3.1V186h-3.1v5.62c0,1.71,0.51,2.4,1.67,2.4c0.52,0,0.92-0.05,1.24-0.12l0.03,3.28
			c-0.56,0.19-1.56,0.34-2.73,0.34c-1.35,0-2.48-0.43-3.2-1.15c-0.82-0.82-1.23-2.11-1.23-4.22V186h-1.85v-3.13h1.85v-3.05
			L523.41,178.84z"/>
		<path class="st0" d="M528.84,176.55h4.29v7.99h0.06c0.43-0.59,0.96-1.05,1.6-1.4c0.63-0.35,1.42-0.56,2.21-0.56
			c2.79,0,4.63,2.06,4.63,6.19v8.49h-4.29v-8.15c0-1.74-0.54-3.02-2.04-3.02c-1.03,0-1.71,0.65-2.02,1.51
			c-0.1,0.26-0.15,0.68-0.15,1.01v8.65h-4.29V176.55z"/>
		<path class="st0" d="M549.3,178.94c0.01,1.24-0.9,2.19-2.29,2.19c-1.31,0-2.21-0.95-2.2-2.19c-0.01-1.28,0.92-2.2,2.25-2.2
			C548.4,176.74,549.29,177.65,549.3,178.94z M544.92,197.26v-14.38h4.29v14.38H544.92z"/>
		<path class="st0" d="M552.53,187.39c0-1.73-0.06-3.2-0.12-4.51h3.71l0.21,1.89h0.08c0.63-0.99,2.03-2.19,4.16-2.19
			c2.87,0,4.75,2.03,4.75,5.95v8.73h-4.29v-8.28c0-1.66-0.55-2.9-2.02-2.9c-1.05,0-1.72,0.74-2.02,1.57
			c-0.11,0.28-0.17,0.72-0.17,1.17v8.44h-4.29V187.39z"/>
		<path class="st0" d="M581.42,182.87c-0.07,1.05-0.13,2.35-0.13,4.37v8.06c0,2.87-0.56,4.95-2.05,6.3
			c-1.42,1.26-3.37,1.71-5.48,1.71c-1.73,0-3.49-0.34-4.7-0.98l0.83-3.26c0.85,0.46,2.22,0.93,3.74,0.93c2.06,0,3.42-1.18,3.42-3.7
			v-0.91H577c-0.74,1.1-2.01,1.73-3.49,1.73c-3.45,0-5.6-3.08-5.6-6.99c0-4.68,2.74-7.57,6.01-7.57c1.72,0,2.87,0.78,3.55,1.94h0.06
			l0.16-1.64H581.42z M577.01,188.55c0-0.31-0.04-0.64-0.11-0.89c-0.27-1.01-0.99-1.74-2.05-1.74c-1.55,0-2.63,1.6-2.63,4.13
			c0,2.3,0.97,3.89,2.6,3.89c0.96,0,1.75-0.61,2.04-1.58c0.11-0.34,0.15-0.79,0.15-1.17V188.55z"/>
		<path class="st0" d="M584.53,193.49c0.74,0.45,2.26,0.98,3.46,0.98c1.24,0,1.82-0.45,1.82-1.22c0-0.75-0.45-1.14-1.98-1.75
			c-2.8-1.09-3.76-2.67-3.75-4.25c0-2.67,2.15-4.68,5.51-4.68c1.54,0,2.86,0.36,3.71,0.79l-0.75,3c-0.62-0.33-1.7-0.74-2.78-0.74
			c-1.06,0-1.63,0.48-1.63,1.18c0,0.67,0.5,1.04,2.14,1.71c2.55,1.01,3.58,2.44,3.59,4.4c0,2.76-2.1,4.62-5.88,4.62
			c-1.67,0-3.28-0.39-4.24-0.95L584.53,193.49z"/>
	</g>
	<g>
		<g>
			<path class="st0" d="M80.03,101.78c-7.41-4.28-15.86-5.15-23.53-3.09c-7.66,2.05-14.55,7.03-18.83,14.44
				c-1.78,3.07-2.96,6.33-3.6,9.63H13.96v11.74h20.13c0.14,0.72,0.3,1.44,0.5,2.15c1.52,5.68,4.65,10.93,9.19,15.01l-2.41,4.18
				l2.35,1.36l-3.62,6.28l-2.36-1.36l-15.84,27.44c-1.78,3.08-0.71,7.05,2.37,8.83l0,0c3.08,1.78,7.05,0.71,8.83-2.37l15.84-27.44
				l-2.36-1.36l3.63-6.28l2.35,1.36l2.41-4.18c5.8,1.89,11.91,1.97,17.59,0.45c7.66-2.05,14.55-7.03,18.83-14.45
				c4.28-7.41,5.15-15.86,3.1-23.53C92.42,112.94,87.45,106.06,80.03,101.78L80.03,101.78z M176.82,99.38l-15.91,11.12
				c-3.51-5.28-8.48-9.22-14.12-11.5c-7.32-2.96-15.78-3.13-23.62,0.2c-7.85,3.33-13.6,9.52-16.57,16.84
				c-2.96,7.32-3.13,15.78,0.19,23.63c3.33,7.85,9.52,13.6,16.84,16.57c7.32,2.96,15.78,3.13,23.62-0.19
				c7.85-3.33,13.61-9.52,16.57-16.84c2.25-5.55,2.89-11.76,1.61-17.86l19.75-14.78l-5.59-3.97L176.82,99.38z M49.71,124.27
				c-0.35,1.3-0.54,2.66-0.54,4.06c0,8.52,6.91,15.43,15.43,15.43c8.52,0,15.43-6.91,15.43-15.43c0-7.45-5.28-13.67-12.3-15.11
				c1.43,1.81,2.29,4.1,2.29,6.59c0,5.88-4.77,10.64-10.65,10.64C55.09,130.46,51.4,127.92,49.71,124.27L49.71,124.27z
				 M119.54,124.27c-0.35,1.3-0.54,2.66-0.54,4.06c0,8.52,6.91,15.43,15.43,15.43c8.52,0,15.43-6.91,15.43-15.43
				c0-7.45-5.28-13.67-12.3-15.11c1.43,1.81,2.29,4.1,2.29,6.59c0,5.88-4.77,10.64-10.64,10.64
				C124.92,130.46,121.23,127.92,119.54,124.27L119.54,124.27z M114.98,119.42c2.1-5.18,6.17-9.56,11.72-11.91
				c5.55-2.35,11.53-2.23,16.71-0.14c5.18,2.1,9.56,6.17,11.91,11.72c2.35,5.55,2.23,11.53,0.14,16.71
				c-2.09,5.18-6.17,9.56-11.72,11.91c-5.55,2.35-11.53,2.23-16.7,0.14c-5.18-2.09-9.56-6.17-11.91-11.72
				C112.77,130.58,112.89,124.6,114.98,119.42L114.98,119.42z M58.68,106.81c5.58-1.5,11.74-0.86,17.15,2.26
				c5.4,3.12,9.03,8.14,10.53,13.72c1.5,5.59,0.86,11.74-2.26,17.15c-3.12,5.41-8.14,9.03-13.72,10.53
				c-5.59,1.5-11.74,0.86-17.15-2.26c-5.4-3.12-9.03-8.13-10.53-13.72c-1.49-5.59-0.86-11.74,2.26-17.15
				C48.08,111.93,53.1,108.3,58.68,106.81L58.68,106.81z"/>
			<path class="st1" d="M185.19,106.54c0,0-2.91-18.41,10.17-37.79c13.08-19.38,15.02-41.17,3.87-59.1c0,0,2.91,23.25-13.08,29.55
				c-15.99,6.3-61.52,2.42-85.26,11.63l11.63-14.53c0,0-26.16,9.69-53.29,15.5c-27.13,5.81-41.91,18.06-43.6,50.38v4.36h14.53
				c0,0,0.73-17.68,16.71-27.85c15.99-10.17,39.48-12.11,39.48-12.11l-4.6,8.72c0,0,24.95-2.9,52.08-4.6
				c24.88-1.92,31.63-3.83,43.35-2.67c-8.36,15.35-8.48,24.72-8.48,38.51H185.19L185.19,106.54z"/>
		</g>
	</g>
</g>
</svg>
